<?xml version="1.0" encoding="UTF-8"?>
<!DOCTYPE svg PUBLIC "-//W3C//DTD SVG 1.1//EN" "http://www.w3.org/Graphics/SVG/1.1/DTD/svg11.dtd">
<svg xmlns="http://www.w3.org/2000/svg" version="1.1" width="130px" height="130px" style="shape-rendering:geometricPrecision; text-rendering:geometricPrecision; image-rendering:optimizeQuality; fill-rule:evenodd; clip-rule:evenodd" xmlns:xlink="http://www.w3.org/1999/xlink">
<g><path style="opacity:0.707" fill="#1e1c4e" d="M 47.5,1.5 C 48.8333,2.16667 50.1667,2.83333 51.5,3.5C 38.7677,1.87224 26.101,2.20557 13.5,4.5C 15.3713,3.20278 17.3713,2.20278 19.5,1.5C 28.8333,0.166667 38.1667,0.166667 47.5,1.5 Z"/></g>
<g><path style="opacity:0.141" fill="#0e0a1e" d="M 47.5,1.5 C 58.2823,1.62212 64.2823,6.95545 65.5,17.5C 65.5,19.5 65.5,21.5 65.5,23.5C 65.5,24.1667 65.1667,24.5 64.5,24.5C 64.815,20.6286 64.4816,16.9619 63.5,13.5C 61.0158,8.34925 57.0158,5.01592 51.5,3.5C 50.1667,2.83333 48.8333,2.16667 47.5,1.5 Z"/></g>
<g><path style="opacity:1" fill="#635ef3" d="M 51.5,3.5 C 57.0158,5.01592 61.0158,8.34925 63.5,13.5C 63.6662,19.8421 63.4995,26.1754 63,32.5C 60.2809,33.4438 57.4475,33.7771 54.5,33.5C 54.8128,37.0419 54.4794,40.3752 53.5,43.5C 53.6664,35.4931 53.4997,27.4931 53,19.5C 49.7231,13.8912 44.8897,12.0578 38.5,14C 36.6667,15.8333 34.8333,17.6667 33,19.5C 29.7231,13.8912 24.8897,12.0578 18.5,14C 15.6923,15.7933 14.0256,18.2933 13.5,21.5C 12.5166,25.2984 12.1832,29.2984 12.5,33.5C 11.6981,32.0484 11.1981,30.3817 11,28.5C 8.53141,29.1469 5.69808,29.4802 2.5,29.5C 2.5,26.8333 2.5,24.1667 2.5,21.5C 1.96662,13.0833 5.63329,7.4166 13.5,4.5C 26.101,2.20557 38.7677,1.87224 51.5,3.5 Z"/></g>
<g><path style="opacity:1" fill="#2c2921" d="M 69.5,-0.5 C 70.1667,-0.5 70.8333,-0.5 71.5,-0.5C 72.0564,5.62322 74.8897,10.2899 80,13.5C 81.2247,13.1377 82.3914,12.6377 83.5,12C 89.5,11.6667 95.5,11.3333 101.5,11C 104.419,7.75356 106.086,3.92023 106.5,-0.5C 107.167,-0.5 107.833,-0.5 108.5,-0.5C 108.06,3.62686 106.726,7.46019 104.5,11C 105.416,11.2784 106.082,11.7784 106.5,12.5C 106.5,13.1667 106.167,13.5 105.5,13.5C 90.5279,10.6937 77.1946,14.0271 65.5,23.5C 65.5,21.5 65.5,19.5 65.5,17.5C 66.2679,18.2625 66.7679,19.2625 67,20.5C 69.9063,17.9627 73.073,15.796 76.5,14C 72.6913,9.88253 70.358,5.04919 69.5,-0.5 Z"/></g>
<g><path style="opacity:1" fill="#efa09e" d="M 71.5,-0.5 C 83.1667,-0.5 94.8333,-0.5 106.5,-0.5C 106.086,3.92023 104.419,7.75356 101.5,11C 95.5,11.3333 89.5,11.6667 83.5,12C 82.3914,12.6377 81.2247,13.1377 80,13.5C 74.8897,10.2899 72.0564,5.62322 71.5,-0.5 Z"/></g>
<g><path style="opacity:1" fill="#fafafe" d="M 53.5,43.5 C 51.1667,43.5 48.8333,43.5 46.5,43.5C 46.6663,36.4921 46.4996,29.4921 46,22.5C 42.7065,19.6888 39.7065,20.0221 37,23.5C 36.501,27.8206 36.3343,32.1539 36.5,36.5C 34.1667,36.5 31.8333,36.5 29.5,36.5C 29.6658,31.8215 29.4992,27.1548 29,22.5C 26.8471,20.5561 24.3471,20.0561 21.5,21C 20.7476,21.6708 20.4142,22.5041 20.5,23.5C 19.5098,29.6446 19.1765,35.9779 19.5,42.5C 17.5,42.5 15.5,42.5 13.5,42.5C 13.5,35.5 13.5,28.5 13.5,21.5C 14.0256,18.2933 15.6923,15.7933 18.5,14C 24.8897,12.0578 29.7231,13.8912 33,19.5C 34.8333,17.6667 36.6667,15.8333 38.5,14C 44.8897,12.0578 49.7231,13.8912 53,19.5C 53.4997,27.4931 53.6664,35.4931 53.5,43.5 Z"/></g>
<g><path style="opacity:0.994" fill="#fbfbfb" d="M 105.5,13.5 C 114.994,15.9712 122.994,20.9712 129.5,28.5C 129.5,62.1667 129.5,95.8333 129.5,129.5C 99.5,129.5 69.5,129.5 39.5,129.5C 38.9048,107.898 40.9048,86.565 45.5,65.5C 45.5,64.5 45.5,63.5 45.5,62.5C 46.64,59.6324 47.64,56.6324 48.5,53.5C 52.5794,52.2448 56.5794,50.5782 60.5,48.5C 63.4074,46.6855 64.7407,44.0188 64.5,40.5C 64.5,35.1667 64.5,29.8333 64.5,24.5C 65.1667,24.5 65.5,24.1667 65.5,23.5C 77.1946,14.0271 90.5279,10.6937 105.5,13.5 Z"/></g>
<g><path style="opacity:0.945" fill="#2c3b2a" d="M 106.5,12.5 C 115.8,13.9823 123.467,18.3156 129.5,25.5C 129.5,26.5 129.5,27.5 129.5,28.5C 122.994,20.9712 114.994,15.9712 105.5,13.5C 106.167,13.5 106.5,13.1667 106.5,12.5 Z"/></g>
<g><path style="opacity:0.529" fill="#0e0920" d="M 19.5,1.5 C 17.3713,2.20278 15.3713,3.20278 13.5,4.5C 5.63329,7.4166 1.96662,13.0833 2.5,21.5C 1.52333,24.2869 1.19,27.2869 1.5,30.5C 1.5,31.1667 1.16667,31.5 0.5,31.5C 0.166667,31.5 -0.166667,31.5 -0.5,31.5C -0.5,28.1667 -0.5,24.8333 -0.5,21.5C 0.473865,9.19278 7.14053,2.52611 19.5,1.5 Z"/></g>
<g><path style="opacity:0.877" fill="#1c154a" d="M 1.5,30.5 C 2.2812,37.0191 2.94786,43.6858 3.5,50.5C 2.83333,50.1667 2.16667,49.8333 1.5,49.5C 0.758803,43.5293 0.425469,37.5293 0.5,31.5C 1.16667,31.5 1.5,31.1667 1.5,30.5 Z"/></g>
<g><path style="opacity:1" fill="#5b4add" d="M 63.5,13.5 C 64.4816,16.9619 64.815,20.6286 64.5,24.5C 64.5,29.8333 64.5,35.1667 64.5,40.5C 62.983,43.0352 61.6497,45.7018 60.5,48.5C 56.5794,50.5782 52.5794,52.2448 48.5,53.5C 47.0357,54.4054 45.7024,54.4054 44.5,53.5C 37.8333,53.5 31.1667,53.5 24.5,53.5C 23.2921,52.7659 21.9587,52.4326 20.5,52.5C 20.6287,54.2161 20.962,55.8828 21.5,57.5C 21.4142,58.4959 21.7476,59.3292 22.5,60C 17.4477,60.7258 12.4477,60.5591 7.5,59.5C 5.23601,56.9063 3.90267,53.9063 3.5,50.5C 2.94786,43.6858 2.2812,37.0191 1.5,30.5C 1.19,27.2869 1.52333,24.2869 2.5,21.5C 2.5,24.1667 2.5,26.8333 2.5,29.5C 5.69808,29.4802 8.53141,29.1469 11,28.5C 11.1981,30.3817 11.6981,32.0484 12.5,33.5C 12.5,36.8333 12.5,40.1667 12.5,43.5C 15.1667,43.5 17.8333,43.5 20.5,43.5C 20.5,36.8333 20.5,30.1667 20.5,23.5C 20.4142,22.5041 20.7476,21.6708 21.5,21C 24.3471,20.0561 26.8471,20.5561 29,22.5C 29.4992,27.1548 29.6658,31.8215 29.5,36.5C 31.8333,36.5 34.1667,36.5 36.5,36.5C 36.3343,32.1539 36.501,27.8206 37,23.5C 39.7065,20.0221 42.7065,19.6888 46,22.5C 46.4996,29.4921 46.6663,36.4921 46.5,43.5C 48.8333,43.5 51.1667,43.5 53.5,43.5C 54.4794,40.3752 54.8128,37.0419 54.5,33.5C 57.4475,33.7771 60.2809,33.4438 63,32.5C 63.4995,26.1754 63.6662,19.8421 63.5,13.5 Z"/></g>
<g><path style="opacity:1" fill="#c5c2f3" d="M 13.5,21.5 C 13.5,28.5 13.5,35.5 13.5,42.5C 15.5,42.5 17.5,42.5 19.5,42.5C 19.1765,35.9779 19.5098,29.6446 20.5,23.5C 20.5,30.1667 20.5,36.8333 20.5,43.5C 17.8333,43.5 15.1667,43.5 12.5,43.5C 12.5,40.1667 12.5,36.8333 12.5,33.5C 12.1832,29.2984 12.5166,25.2984 13.5,21.5 Z"/></g>
<g><path style="opacity:1" fill="#a4a2b0" d="M 64.5,40.5 C 64.7407,44.0188 63.4074,46.6855 60.5,48.5C 61.6497,45.7018 62.983,43.0352 64.5,40.5 Z"/></g>
<g><path style="opacity:0.114" fill="#181148" d="M 24.5,54.5 C 24.5,54.1667 24.5,53.8333 24.5,53.5C 31.1667,53.5 37.8333,53.5 44.5,53.5C 43.1667,54.1667 41.8333,54.8333 40.5,55.5C 35.0735,55.7825 29.7401,55.4491 24.5,54.5 Z"/></g>
<g><path style="opacity:0.043" fill="#0f0820" d="M 24.5,53.5 C 24.5,53.8333 24.5,54.1667 24.5,54.5C 23.7611,54.369 23.0944,54.5357 22.5,55C 25.3997,59.9292 29.733,61.7626 35.5,60.5C 33.3926,61.4682 31.0593,61.8016 28.5,61.5C 27.1266,61.6567 25.7932,61.49 24.5,61C 23.8366,59.4815 22.8366,58.3149 21.5,57.5C 20.962,55.8828 20.6287,54.2161 20.5,52.5C 21.9587,52.4326 23.2921,52.7659 24.5,53.5 Z"/></g>
<g><path style="opacity:0.188" fill="#2e382e" d="M 44.5,53.5 C 45.7024,54.4054 47.0357,54.4054 48.5,53.5C 47.64,56.6324 46.64,59.6324 45.5,62.5C 45.5,61.8333 45.5,61.1667 45.5,60.5C 45.5,59.8333 45.1667,59.5 44.5,59.5C 45.2341,58.2921 45.5674,56.9587 45.5,55.5C 43.8333,55.5 42.1667,55.5 40.5,55.5C 41.8333,54.8333 43.1667,54.1667 44.5,53.5 Z"/></g>
<g><path style="opacity:1" fill="#303132" d="M 59.5,54.5 C 60.7498,54.5774 61.5831,55.244 62,56.5C 68.4699,55.6061 72.1366,58.6061 73,65.5C 73.9771,70.7339 73.3104,75.7339 71,80.5C 64.6721,84.338 60.6721,82.6713 59,75.5C 58.62,70.4368 59.12,65.4368 60.5,60.5C 59.8444,58.5466 59.5111,56.5466 59.5,54.5 Z"/></g>
<g><path style="opacity:1" fill="#42464a" d="M 96.5,74.5 C 95.3503,69.6842 95.1837,64.6842 96,59.5C 96.3826,58.944 96.8826,58.6107 97.5,58.5C 97.8333,58.5 98.1667,58.5 98.5,58.5C 99.7058,55.8609 101.706,55.0276 104.5,56C 111.745,63.3967 112.411,71.3967 106.5,80C 100.011,81.1887 96.8447,78.3554 97,71.5C 96.5172,72.448 96.3505,73.448 96.5,74.5 Z"/></g>
<g><path style="opacity:0.455" fill="#0b0419" d="M 1.5,49.5 C 2.16667,49.8333 2.83333,50.1667 3.5,50.5C 3.90267,53.9063 5.23601,56.9063 7.5,59.5C 11.0928,64.7983 16.0928,67.7983 22.5,68.5C 22.8333,69.1667 23.1667,69.8333 23.5,70.5C 10.9197,68.8947 3.58636,61.8947 1.5,49.5 Z"/></g>
<g><path style="opacity:1" fill="#43484c" d="M 61.5,62.5 C 62.5,62.5 63.5,62.5 64.5,62.5C 64.7148,60.8212 64.0481,59.8212 62.5,59.5C 65.5566,56.9036 68.0566,57.5703 70,61.5C 71.9282,67.4897 71.9282,73.4897 70,79.5C 66.4746,81.1903 63.4746,80.5236 61,77.5C 60.5017,72.4808 60.6684,67.4808 61.5,62.5 Z"/></g>
<g><path style="opacity:1" fill="#dedee2" d="M 98.5,58.5 C 100.465,58.9483 100.798,59.9483 99.5,61.5C 98.6143,60.675 98.281,59.675 98.5,58.5 Z"/></g>
<g><path style="opacity:1" fill="#5038c3" d="M 21.5,57.5 C 22.8366,58.3149 23.8366,59.4815 24.5,61C 25.7932,61.49 27.1266,61.6567 28.5,61.5C 29.7933,62.1582 31.2933,62.4915 33,62.5C 37.2093,62.0243 41.3759,61.3577 45.5,60.5C 45.5,61.1667 45.5,61.8333 45.5,62.5C 45.5,63.5 45.5,64.5 45.5,65.5C 44.8333,65.8333 44.1667,66.1667 43.5,66.5C 41.0347,66.767 38.7014,67.4336 36.5,68.5C 31.8333,68.5 27.1667,68.5 22.5,68.5C 16.0928,67.7983 11.0928,64.7983 7.5,59.5C 12.4477,60.5591 17.4477,60.7258 22.5,60C 21.7476,59.3292 21.4142,58.4959 21.5,57.5 Z"/></g>
<g><path style="opacity:1" fill="#d7d7d9" d="M 62.5,59.5 C 64.0481,59.8212 64.7148,60.8212 64.5,62.5C 63.5,62.5 62.5,62.5 61.5,62.5C 61.5569,61.391 61.8902,60.391 62.5,59.5 Z"/></g>
<g><path style="opacity:0.851" fill="#1c124a" d="M 44.5,59.5 C 45.1667,59.5 45.5,59.8333 45.5,60.5C 41.3759,61.3577 37.2093,62.0243 33,62.5C 31.2933,62.4915 29.7933,62.1582 28.5,61.5C 31.0593,61.8016 33.3926,61.4682 35.5,60.5C 38.5176,60.2962 41.5176,59.9629 44.5,59.5 Z"/></g>
<g><path style="opacity:0.958" fill="#2d1d76" d="M 22.5,68.5 C 27.1667,68.5 31.8333,68.5 36.5,68.5C 32.5,69.1667 28.5,69.8333 24.5,70.5C 24.1667,70.5 23.8333,70.5 23.5,70.5C 23.1667,69.8333 22.8333,69.1667 22.5,68.5 Z"/></g>
<g><path style="opacity:0.008" fill="#100820" d="M 43.5,66.5 C 43.4431,67.609 43.1098,68.609 42.5,69.5C 36.5362,70.3068 30.5362,70.6401 24.5,70.5C 28.5,69.8333 32.5,69.1667 36.5,68.5C 38.7014,67.4336 41.0347,66.767 43.5,66.5 Z"/></g>
<g><path style="opacity:1" fill="#252629" d="M 96.5,74.5 C 96.3505,73.448 96.5172,72.448 97,71.5C 96.8447,78.3554 100.011,81.1887 106.5,80C 112.411,71.3967 111.745,63.3967 104.5,56C 101.706,55.0276 99.7058,55.8609 98.5,58.5C 98.1667,58.5 97.8333,58.5 97.5,58.5C 96.5661,56.7615 96.5661,55.0948 97.5,53.5C 106.749,53.7572 111.415,58.7572 111.5,68.5C 111.703,72.4114 110.87,76.0781 109,79.5C 102.204,84.5693 98.037,82.9026 96.5,74.5 Z"/></g>
<g><path style="opacity:1" fill="#f0f09e" d="M 99.5,95.5 C 90.2566,97.1798 80.9233,97.8465 71.5,97.5C 70.5,97.5 69.5,97.5 68.5,97.5C 68.3893,96.8826 68.056,96.3826 67.5,96C 71.2355,93.1467 74.9021,90.3133 78.5,87.5C 86.9392,86.2013 94.2725,88.5346 100.5,94.5C 100.376,95.1067 100.043,95.44 99.5,95.5 Z"/></g>
<g><path style="opacity:1" fill="#424132" d="M 78.5,87.5 C 74.9021,90.3133 71.2355,93.1467 67.5,96C 68.056,96.3826 68.3893,96.8826 68.5,97.5C 67.0222,97.762 65.6888,97.4287 64.5,96.5C 68.642,92.6927 73.3087,89.6927 78.5,87.5 Z"/></g>
<g><path style="opacity:1" fill="#a3a785" d="M 99.5,95.5 C 94.8271,98.75 89.6604,101.083 84,102.5C 79.4744,101.479 75.3078,99.8121 71.5,97.5C 80.9233,97.8465 90.2566,97.1798 99.5,95.5 Z"/></g>
<g><path style="opacity:1" fill="#3b302d" d="M 101.5,122.5 C 96.9411,121.873 93.2744,123.207 90.5,126.5C 86.713,127.186 83.5463,126.186 81,123.5C 77.3932,126.269 74.0599,125.936 71,122.5C 68.0619,114.529 69.5619,107.529 75.5,101.5C 72.8476,100.525 70.5143,99.1918 68.5,97.5C 69.5,97.5 70.5,97.5 71.5,97.5C 75.3078,99.8121 79.4744,101.479 84,102.5C 89.6604,101.083 94.8271,98.75 99.5,95.5C 100.043,95.44 100.376,95.1067 100.5,94.5C 94.2725,88.5346 86.9392,86.2013 78.5,87.5C 80.1859,84.9953 82.5193,84.162 85.5,85C 91.6429,86.6543 97.1429,89.4877 102,93.5C 102.749,94.635 102.583,95.635 101.5,96.5C 99.3359,97.4143 97.3359,98.581 95.5,100C 100.227,101.74 104.06,104.574 107,108.5C 107.667,111.833 107.667,115.167 107,118.5C 105.549,120.464 103.716,121.797 101.5,122.5 Z"/></g>
<g><path style="opacity:1" fill="#f1a29f" d="M 93.5,101.5 C 97.6305,102.816 101.464,104.816 105,107.5C 108.604,117.722 105.104,122.055 94.5,120.5C 93.1552,121.347 92.1552,122.513 91.5,124C 87.4087,125.227 83.9087,124.394 81,121.5C 78,124.167 75,124.167 72,121.5C 71.3333,117.5 71.3333,113.5 72,109.5C 72.7918,106.894 74.2918,104.894 76.5,103.5C 77.9221,103.75 78.9221,104.583 79.5,106C 84.8971,106.769 89.5638,105.269 93.5,101.5 Z"/></g>
<g><path style="opacity:0.702" fill="#222f21" d="M 45.5,65.5 C 40.9048,86.565 38.9048,107.898 39.5,129.5C 39.1667,129.5 38.8333,129.5 38.5,129.5C 38.3938,124.537 37.3938,124.537 35.5,129.5C 34.8333,129.5 34.1667,129.5 33.5,129.5C 34.6401,127.22 35.8068,124.886 37,122.5C 37.6892,104.704 39.5225,87.0369 42.5,69.5C 43.1098,68.609 43.4431,67.609 43.5,66.5C 44.1667,66.1667 44.8333,65.8333 45.5,65.5 Z"/></g>
<g><path style="opacity:1" fill="#c1838f" d="M 93.5,101.5 C 89.5638,105.269 84.8971,106.769 79.5,106C 78.9221,104.583 77.9221,103.75 76.5,103.5C 82.0996,103.927 87.7663,103.26 93.5,101.5 Z"/></g>
<g><path style="opacity:1" fill="#8c91a9" d="M 101.5,122.5 C 97.6263,123.32 93.9596,124.653 90.5,126.5C 93.2744,123.207 96.9411,121.873 101.5,122.5 Z"/></g>
<g><path style="opacity:0.573" fill="#c6c3c6" d="M 38.5,129.5 C 37.5,129.5 36.5,129.5 35.5,129.5C 37.3938,124.537 38.3938,124.537 38.5,129.5 Z"/></g>
</svg>
