<?xml version="1.0" encoding="UTF-8"?>
<!DOCTYPE svg PUBLIC "-//W3C//DTD SVG 1.1//EN" "http://www.w3.org/Graphics/SVG/1.1/DTD/svg11.dtd">
<svg xmlns="http://www.w3.org/2000/svg" version="1.1" width="216px" height="216px" style="shape-rendering:geometricPrecision; text-rendering:geometricPrecision; image-rendering:optimizeQuality; fill-rule:evenodd; clip-rule:evenodd" xmlns:xlink="http://www.w3.org/1999/xlink">
<g><path style="opacity:1" fill="#f1a19f" d="M 118.5,-0.5 C 137.833,-0.5 157.167,-0.5 176.5,-0.5C 176.938,7.19828 174.271,13.5316 168.5,18.5C 155.584,18.0975 142.917,19.4308 130.5,22.5C 124.631,15.761 120.631,8.09437 118.5,-0.5 Z"/></g>
<g><path style="opacity:0.033" fill="#000001" d="M 37.5,2.5 C 49.5,1.16667 61.5,1.16667 73.5,2.5C 72.791,3.40397 71.791,3.73731 70.5,3.5C 59.6794,2.5054 48.6794,2.17207 37.5,2.5 Z"/></g>
<g><path style="opacity:0.393" fill="#101237" d="M 37.5,2.5 C 48.6794,2.17207 59.6794,2.5054 70.5,3.5C 59.9865,3.17244 49.6532,3.50577 39.5,4.5C 35.3435,5.44894 31.0102,6.11561 26.5,6.5C 27.1098,5.60895 27.4431,4.60895 27.5,3.5C 30.728,2.58627 34.0613,2.25293 37.5,2.5 Z"/></g>
<g><path style="opacity:0.859" fill="#232369" d="M 73.5,2.5 C 75.1667,2.5 76.8333,2.5 78.5,2.5C 79.0998,3.89992 80.0998,4.89992 81.5,5.5C 67.5147,4.70882 53.5147,4.37549 39.5,4.5C 49.6532,3.50577 59.9865,3.17244 70.5,3.5C 71.791,3.73731 72.791,3.40397 73.5,2.5 Z"/></g>
<g><path style="opacity:1" fill="#605df4" d="M 39.5,4.5 C 53.5147,4.37549 67.5147,4.70882 81.5,5.5C 87.3449,5.59567 92.3449,7.59567 96.5,11.5C 100.738,15.6308 104.072,20.2974 106.5,25.5C 107.053,30.482 107.387,35.482 107.5,40.5C 107.818,45.0323 107.485,49.3656 106.5,53.5C 106.666,47.1579 106.5,40.8246 106,34.5C 100.975,34.6647 95.8088,35.1647 90.5,36C 91.8143,38.6047 91.8143,41.1047 90.5,43.5C 90.7947,41.2646 90.4614,39.2646 89.5,37.5C 88.275,29.2753 83.6083,24.2753 75.5,22.5C 73.0336,21.3659 70.367,21.1993 67.5,22C 65.6803,22.2004 64.347,23.0337 63.5,24.5C 62.7611,24.369 62.0944,24.5357 61.5,25C 59.369,27.448 57.369,29.948 55.5,32.5C 53.3961,28.0593 50.0627,25.0593 45.5,23.5C 43.7103,22.0027 41.5437,21.336 39,21.5C 36.1789,21.4078 33.6789,22.0744 31.5,23.5C 27.8333,25.1667 25.1667,27.8333 23.5,31.5C 22.71,32.6085 22.21,33.9419 22,35.5C 21.5001,47.4954 21.3335,59.4954 21.5,71.5C 20.6697,61.3415 20.1697,51.0081 20,40.5C 15.2512,41.3052 10.4179,41.8052 5.5,42C 4.54948,45.0567 4.21614,48.2234 4.5,51.5C 3.39698,44.324 3.39698,36.9907 4.5,29.5C 4.51715,27.4352 4.85048,25.4352 5.5,23.5C 9.46083,17.8714 14.1275,12.8714 19.5,8.5C 21.7457,7.54483 24.079,6.87816 26.5,6.5C 31.0102,6.11561 35.3435,5.44894 39.5,4.5 Z"/></g>
<g><path style="opacity:0.071" fill="#070414" d="M 27.5,3.5 C 27.4431,4.60895 27.1098,5.60895 26.5,6.5C 24.079,6.87816 21.7457,7.54483 19.5,8.5C 12.7366,11.595 8.06988,16.595 5.5,23.5C 4.85048,25.4352 4.51715,27.4352 4.5,29.5C 3.72813,30.6935 2.72813,31.6935 1.5,32.5C 3.07949,16.5824 11.7462,6.91576 27.5,3.5 Z"/></g>
<g><path style="opacity:0.843" fill="#232268" d="M 96.5,11.5 C 102.567,14.2308 105.9,18.8975 106.5,25.5C 104.072,20.2974 100.738,15.6308 96.5,11.5 Z"/></g>
<g><path style="opacity:0.961" fill="#232265" d="M 19.5,8.5 C 14.1275,12.8714 9.46083,17.8714 5.5,23.5C 8.06988,16.595 12.7366,11.595 19.5,8.5 Z"/></g>
<g><path style="opacity:0.089" fill="#040211" d="M 78.5,2.5 C 94.6975,3.08218 105.031,11.0822 109.5,26.5C 108.391,26.4431 107.391,26.1098 106.5,25.5C 105.9,18.8975 102.567,14.2308 96.5,11.5C 92.3449,7.59567 87.3449,5.59567 81.5,5.5C 80.0998,4.89992 79.0998,3.89992 78.5,2.5 Z"/></g>
<g><path style="opacity:1" fill="#372827" d="M 168.5,18.5 C 170.084,19.3818 171.751,20.2152 173.5,21C 172.207,21.49 170.873,21.6567 169.5,21.5C 164.18,20.7343 158.846,20.5676 153.5,21C 152.944,21.3826 152.611,21.8826 152.5,22.5C 148.486,22.3345 144.486,22.5012 140.5,23C 138.007,24.2691 135.34,25.1024 132.5,25.5C 131.5,25.5 130.5,25.5 129.5,25.5C 129.263,24.209 129.596,23.209 130.5,22.5C 142.917,19.4308 155.584,18.0975 168.5,18.5 Z"/></g>
<g><path style="opacity:1" fill="#acaaf9" d="M 45.5,23.5 C 40.8433,22.2591 36.1767,22.2591 31.5,23.5C 33.6789,22.0744 36.1789,21.4078 39,21.5C 41.5437,21.336 43.7103,22.0027 45.5,23.5 Z"/></g>
<g><path style="opacity:1" fill="#adaaf9" d="M 75.5,22.5 C 71.3425,22.3316 67.3425,22.9983 63.5,24.5C 64.347,23.0337 65.6803,22.2004 67.5,22C 70.367,21.1993 73.0336,21.3659 75.5,22.5 Z"/></g>
<g><path style="opacity:1" fill="#acacac" d="M 169.5,21.5 C 169.5,21.8333 169.5,22.1667 169.5,22.5C 163.833,22.5 158.167,22.5 152.5,22.5C 152.611,21.8826 152.944,21.3826 153.5,21C 158.846,20.5676 164.18,20.7343 169.5,21.5 Z"/></g>
<g><path style="opacity:0.994" fill="#fcfcfc" d="M 152.5,22.5 C 158.167,22.5 163.833,22.5 169.5,22.5C 182.672,23.9395 194.338,28.7728 204.5,37C 208.036,40.7039 211.702,44.2039 215.5,47.5C 215.5,103.5 215.5,159.5 215.5,215.5C 165.833,215.5 116.167,215.5 66.5,215.5C 66.349,201.484 66.6823,187.484 67.5,173.5C 67.3339,167.824 67.5006,162.157 68,156.5C 70.4995,141.518 72.6662,126.518 74.5,111.5C 74.8333,110.833 75.1667,110.167 75.5,109.5C 76.3213,106.359 76.8213,103.025 77,99.5C 77.8611,96.2695 79.0278,93.2695 80.5,90.5C 82.4123,89.2008 84.4123,88.2008 86.5,87.5C 88.153,87.3404 89.4863,86.6737 90.5,85.5C 91.391,84.8902 92.391,84.5569 93.5,84.5C 98.9496,83.2292 102.783,79.8959 105,74.5C 107.514,63.332 108.68,51.9987 108.5,40.5C 108.5,40.1667 108.5,39.8333 108.5,39.5C 115.616,33.2769 123.616,28.6102 132.5,25.5C 135.34,25.1024 138.007,24.2691 140.5,23C 144.486,22.5012 148.486,22.3345 152.5,22.5 Z"/></g>
<g><path style="opacity:1" fill="#fafafe" d="M 45.5,23.5 C 50.0627,25.0593 53.3961,28.0593 55.5,32.5C 57.369,29.948 59.369,27.448 61.5,25C 62.0944,24.5357 62.7611,24.369 63.5,24.5C 67.3425,22.9983 71.3425,22.3316 75.5,22.5C 83.6083,24.2753 88.275,29.2753 89.5,37.5C 89.5,48.8333 89.5,60.1667 89.5,71.5C 85.8333,71.5 82.1667,71.5 78.5,71.5C 78.8279,60.3206 78.4946,49.3206 77.5,38.5C 74.4006,34.7597 70.4006,33.593 65.5,35C 64.6667,35.8333 63.8333,36.6667 63,37.5C 61.6039,45.0804 61.1039,52.747 61.5,60.5C 57.8333,60.5 54.1667,60.5 50.5,60.5C 50.8235,53.9779 50.4902,47.6446 49.5,41.5C 49.2007,38.3579 47.5341,36.1912 44.5,35C 41.8333,34.3333 39.1667,34.3333 36.5,35C 35.944,35.3826 35.6107,35.8826 35.5,36.5C 33.8958,37.287 33.2291,38.6203 33.5,40.5C 32.5058,50.6532 32.1724,60.9865 32.5,71.5C 29.1667,71.5 25.8333,71.5 22.5,71.5C 22.3339,58.1487 22.6673,44.8154 23.5,31.5C 25.1667,27.8333 27.8333,25.1667 31.5,23.5C 36.1767,22.2591 40.8433,22.2591 45.5,23.5 Z"/></g>
<g><path style="opacity:0.541" fill="#1b1a55" d="M 106.5,25.5 C 107.391,26.1098 108.391,26.4431 109.5,26.5C 109.5,27.5 109.5,28.5 109.5,29.5C 108.586,32.728 108.253,36.0613 108.5,39.5C 108.5,39.8333 108.5,40.1667 108.5,40.5C 108.167,40.5 107.833,40.5 107.5,40.5C 107.387,35.482 107.053,30.482 106.5,25.5 Z"/></g>
<g><path style="opacity:0.549" fill="#283324" d="M 176.5,-0.5 C 177.833,-0.5 179.167,-0.5 180.5,-0.5C 179.335,4.48749 178.168,9.48749 177,14.5C 176.215,16.286 175.049,17.786 173.5,19C 182.076,21.1121 190.41,24.1121 198.5,28C 204.672,32.3462 210.339,37.1795 215.5,42.5C 215.5,44.1667 215.5,45.8333 215.5,47.5C 211.702,44.2039 208.036,40.7039 204.5,37C 194.338,28.7728 182.672,23.9395 169.5,22.5C 169.5,22.1667 169.5,21.8333 169.5,21.5C 170.873,21.6567 172.207,21.49 173.5,21C 171.751,20.2152 170.084,19.3818 168.5,18.5C 174.271,13.5316 176.938,7.19828 176.5,-0.5 Z"/></g>
<g><path style="opacity:0.424" fill="#252d20" d="M 116.5,-0.5 C 117.167,-0.5 117.833,-0.5 118.5,-0.5C 120.631,8.09437 124.631,15.761 130.5,22.5C 129.596,23.209 129.263,24.209 129.5,25.5C 130.5,25.5 131.5,25.5 132.5,25.5C 123.616,28.6102 115.616,33.2769 108.5,39.5C 108.253,36.0613 108.586,32.728 109.5,29.5C 110.161,30.7175 110.828,32.0508 111.5,33.5C 116.588,29.7397 121.921,26.4063 127.5,23.5C 120.759,16.9592 117.093,8.95923 116.5,-0.5 Z"/></g>
<g><path style="opacity:0.535" fill="#0b061e" d="M 1.5,33.5 C 2.80863,40.2656 2.80863,46.9322 1.5,53.5C 0.166667,46.8333 0.166667,40.1667 1.5,33.5 Z"/></g>
<g><path style="opacity:1" fill="#dad7f7" d="M 23.5,31.5 C 22.6673,44.8154 22.3339,58.1487 22.5,71.5C 25.8333,71.5 29.1667,71.5 32.5,71.5C 32.1724,60.9865 32.5058,50.6532 33.5,40.5C 33.5,51.1667 33.5,61.8333 33.5,72.5C 29.2984,72.8168 25.2984,72.4834 21.5,71.5C 21.3335,59.4954 21.5001,47.4954 22,35.5C 22.21,33.9419 22.71,32.6085 23.5,31.5 Z"/></g>
<g><path style="opacity:1" fill="#9993ed" d="M 35.5,36.5 C 34.8721,48.6288 34.2054,60.6288 33.5,72.5C 33.5,61.8333 33.5,51.1667 33.5,40.5C 33.2291,38.6203 33.8958,37.287 35.5,36.5 Z"/></g>
<g><path style="opacity:0.588" fill="#221d62" d="M 4.5,29.5 C 3.39698,36.9907 3.39698,44.324 4.5,51.5C 4.5,58.1667 4.5,64.8333 4.5,71.5C 3.28794,68.2204 2.28794,64.8871 1.5,61.5C 1.5,58.8333 1.5,56.1667 1.5,53.5C 2.80863,46.9322 2.80863,40.2656 1.5,33.5C 1.5,33.1667 1.5,32.8333 1.5,32.5C 2.72813,31.6935 3.72813,30.6935 4.5,29.5 Z"/></g>
<g><path style="opacity:1" fill="#5b4ce1" d="M 49.5,41.5 C 49.5,48.1667 49.5,54.8333 49.5,61.5C 53.7016,61.8168 57.7016,61.4834 61.5,60.5C 61.1039,52.747 61.6039,45.0804 63,37.5C 63.8333,36.6667 64.6667,35.8333 65.5,35C 70.4006,33.593 74.4006,34.7597 77.5,38.5C 77.5,49.8333 77.5,61.1667 77.5,72.5C 81.8333,72.5 86.1667,72.5 90.5,72.5C 90.5,62.8333 90.5,53.1667 90.5,43.5C 91.8143,41.1047 91.8143,38.6047 90.5,36C 95.8088,35.1647 100.975,34.6647 106,34.5C 106.5,40.8246 106.666,47.1579 106.5,53.5C 107.653,62.5475 105.82,70.8808 101,78.5C 98.8442,81.1209 96.3442,83.1209 93.5,84.5C 92.391,84.5569 91.391,84.8902 90.5,85.5C 63.2941,85.7248 36.2941,86.0582 9.5,86.5C 8.81815,85.7573 8.15149,85.0906 7.5,84.5C 6.25681,80.2144 5.25681,75.8811 4.5,71.5C 4.5,64.8333 4.5,58.1667 4.5,51.5C 4.21614,48.2234 4.54948,45.0567 5.5,42C 10.4179,41.8052 15.2512,41.3052 20,40.5C 20.1697,51.0081 20.6697,61.3415 21.5,71.5C 25.2984,72.4834 29.2984,72.8168 33.5,72.5C 34.2054,60.6288 34.8721,48.6288 35.5,36.5C 35.6107,35.8826 35.944,35.3826 36.5,35C 39.1667,34.3333 41.8333,34.3333 44.5,35C 47.5341,36.1912 49.2007,38.3579 49.5,41.5 Z"/></g>
<g><path style="opacity:1" fill="#beb9f3" d="M 49.5,41.5 C 50.4902,47.6446 50.8235,53.9779 50.5,60.5C 54.1667,60.5 57.8333,60.5 61.5,60.5C 57.7016,61.4834 53.7016,61.8168 49.5,61.5C 49.5,54.8333 49.5,48.1667 49.5,41.5 Z"/></g>
<g><path style="opacity:1" fill="#bbb7f3" d="M 89.5,37.5 C 90.4614,39.2646 90.7947,41.2646 90.5,43.5C 90.5,53.1667 90.5,62.8333 90.5,72.5C 86.1667,72.5 81.8333,72.5 77.5,72.5C 77.5,61.1667 77.5,49.8333 77.5,38.5C 78.4946,49.3206 78.8279,60.3206 78.5,71.5C 82.1667,71.5 85.8333,71.5 89.5,71.5C 89.5,60.1667 89.5,48.8333 89.5,37.5 Z"/></g>
<g><path style="opacity:1" fill="#595381" d="M 107.5,40.5 C 107.833,40.5 108.167,40.5 108.5,40.5C 108.68,51.9987 107.514,63.332 105,74.5C 102.783,79.8959 98.9496,83.2292 93.5,84.5C 96.3442,83.1209 98.8442,81.1209 101,78.5C 105.82,70.8808 107.653,62.5475 106.5,53.5C 107.485,49.3656 107.818,45.0323 107.5,40.5 Z"/></g>
<g><path style="opacity:0.655" fill="#151032" d="M 1.5,61.5 C 2.28794,64.8871 3.28794,68.2204 4.5,71.5C 5.25681,75.8811 6.25681,80.2144 7.5,84.5C 7.45954,87.8806 7.79287,91.2139 8.5,94.5C 7.83333,94.5 7.16667,94.5 6.5,94.5C 2.89351,83.9297 1.22684,72.9297 1.5,61.5 Z"/></g>
<g><path style="opacity:0.467" fill="#1e1557" d="M 86.5,87.5 C 84.4123,88.2008 82.4123,89.2008 80.5,90.5C 80.2648,89.9033 79.7648,89.5699 79,89.5C 74.2467,89.9585 69.7467,90.9585 65.5,92.5C 61.1667,92.5 56.8333,92.5 52.5,92.5C 49.2924,90.4686 45.959,90.1353 42.5,91.5C 42.1667,91.5 41.8333,91.5 41.5,91.5C 40.3646,89.7868 38.698,89.1201 36.5,89.5C 36.5,91.5 36.5,93.5 36.5,95.5C 34.9605,93.1617 34.2938,90.4951 34.5,87.5C 51.8292,90.144 69.1625,90.144 86.5,87.5 Z"/></g>
<g><path style="opacity:0.054" fill="#010010" d="M 42.5,91.5 C 45.959,90.1353 49.2924,90.4686 52.5,92.5C 49.0613,92.7471 45.728,92.4137 42.5,91.5 Z"/></g>
<g><path style="opacity:1" fill="#232426" d="M 160.5,124.5 C 160.215,122.712 160.548,121.045 161.5,119.5C 162.245,123.302 163.411,126.969 165,130.5C 168.63,136.048 172.963,136.715 178,132.5C 179.409,128.684 181.076,125.017 183,121.5C 183.667,116.833 183.667,112.167 183,107.5C 180.883,104.385 179.216,101.052 178,97.5C 175.087,92.9454 171.254,91.7788 166.5,94C 165.177,94.8159 164.511,95.9826 164.5,97.5C 163.833,97.5 163.5,97.8333 163.5,98.5C 161.985,104.599 161.151,110.932 161,117.5C 160.722,116.584 160.222,115.918 159.5,115.5C 159.334,110.156 159.501,104.823 160,99.5C 160.85,97.99 161.683,96.49 162.5,95C 161.355,92.8014 161.355,90.6348 162.5,88.5C 163.167,89.8333 163.833,91.1667 164.5,92.5C 166.933,89.758 169.933,88.9246 173.5,90C 189.053,103.383 190.72,118.383 178.5,135C 175.068,137.462 171.401,137.962 167.5,136.5C 163.589,133.334 161.255,129.334 160.5,124.5 Z"/></g>
<g><path style="opacity:1" fill="#42474b" d="M 160.5,124.5 C 159.523,121.713 159.19,118.713 159.5,115.5C 160.222,115.918 160.722,116.584 161,117.5C 161.151,110.932 161.985,104.599 163.5,98.5C 163.176,101.694 164.342,102.694 167,101.5C 167.49,100.207 167.657,98.8734 167.5,97.5C 166.5,97.5 165.5,97.5 164.5,97.5C 164.511,95.9826 165.177,94.8159 166.5,94C 171.254,91.7788 175.087,92.9454 178,97.5C 179.216,101.052 180.883,104.385 183,107.5C 183.667,112.167 183.667,116.833 183,121.5C 181.076,125.017 179.409,128.684 178,132.5C 172.963,136.715 168.63,136.048 165,130.5C 163.411,126.969 162.245,123.302 161.5,119.5C 160.548,121.045 160.215,122.712 160.5,124.5 Z"/></g>
<g><path style="opacity:1" fill="#42474b" d="M 98.5,125.5 C 97.353,121.354 97.1864,117.02 98,112.5C 98.2037,109.203 99.037,106.203 100.5,103.5C 99.7166,107.146 99.5499,110.812 100,114.5C 101.18,109.374 102.346,104.374 103.5,99.5C 103.5,101.5 103.5,103.5 103.5,105.5C 104.822,105.67 105.989,105.337 107,104.5C 107.495,102.527 107.662,100.527 107.5,98.5C 106.5,98.5 105.5,98.5 104.5,98.5C 106.041,95.8169 108.374,94.9836 111.5,96C 113,97.5 114.5,99 116,100.5C 116.054,103.861 117.054,106.861 119,109.5C 119.711,116.215 119.378,122.882 118,129.5C 112.667,137.5 107.333,137.5 102,129.5C 100.786,124.886 99.7863,120.22 99,115.5C 98.5017,118.817 98.335,122.15 98.5,125.5 Z"/></g>
<g><path style="opacity:0.929" fill="#191e1d" d="M 80.5,90.5 C 79.0278,93.2695 77.8611,96.2695 77,99.5C 76.8213,103.025 76.3213,106.359 75.5,109.5C 75.5,106.833 75.5,104.167 75.5,101.5C 70.3493,101.692 65.3493,101.692 60.5,101.5C 65.3529,100.396 70.3529,99.3961 75.5,98.5C 75.3573,96.7376 75.6906,95.0709 76.5,93.5C 72.8927,92.5108 69.226,92.1774 65.5,92.5C 69.7467,90.9585 74.2467,89.9585 79,89.5C 79.7648,89.5699 80.2648,89.9033 80.5,90.5 Z"/></g>
<g><path style="opacity:0.875" fill="#1c1451" d="M 11.5,98.5 C 14.8333,101.167 17.8333,104.167 20.5,107.5C 16.5,105.5 13.5,102.5 11.5,98.5 Z"/></g>
<g><path style="opacity:0.101" fill="#070316" d="M 41.5,91.5 C 40.1266,91.3433 38.7932,91.51 37.5,92C 42.4151,99.4829 49.4151,102.65 58.5,101.5C 55.0381,102.482 51.3714,102.815 47.5,102.5C 42.5257,102.187 38.859,99.8541 36.5,95.5C 36.5,93.5 36.5,91.5 36.5,89.5C 38.698,89.1201 40.3646,89.7868 41.5,91.5 Z"/></g>
<g><path style="opacity:1" fill="#d9d9dd" d="M 164.5,97.5 C 165.5,97.5 166.5,97.5 167.5,97.5C 167.657,98.8734 167.49,100.207 167,101.5C 164.342,102.694 163.176,101.694 163.5,98.5C 163.5,97.8333 163.833,97.5 164.5,97.5 Z"/></g>
<g><path style="opacity:1" fill="#533ccb" d="M 7.5,84.5 C 8.15149,85.0906 8.81815,85.7573 9.5,86.5C 36.2941,86.0582 63.2941,85.7248 90.5,85.5C 89.4863,86.6737 88.153,87.3404 86.5,87.5C 69.1625,90.144 51.8292,90.144 34.5,87.5C 34.2938,90.4951 34.9605,93.1617 36.5,95.5C 38.859,99.8541 42.5257,102.187 47.5,102.5C 49.5706,103.809 52.0706,104.475 55,104.5C 61.5312,104.067 68.0312,103.4 74.5,102.5C 74.6633,104.857 74.4966,107.19 74,109.5C 73.0053,110.066 72.172,110.733 71.5,111.5C 67.9523,112.13 64.6189,113.13 61.5,114.5C 53.5,114.5 45.5,114.5 37.5,114.5C 31.063,113.913 25.3964,111.58 20.5,107.5C 17.8333,104.167 14.8333,101.167 11.5,98.5C 10.5,97.1667 9.5,95.8333 8.5,94.5C 7.79287,91.2139 7.45954,87.8806 7.5,84.5 Z"/></g>
<g><path style="opacity:0.98" fill="#281b68" d="M 58.5,101.5 C 59.1667,101.5 59.8333,101.5 60.5,101.5C 65.3493,101.692 70.3493,101.692 75.5,101.5C 75.5,104.167 75.5,106.833 75.5,109.5C 75.1667,110.167 74.8333,110.833 74.5,111.5C 73.5,111.5 72.5,111.5 71.5,111.5C 72.172,110.733 73.0053,110.066 74,109.5C 74.4966,107.19 74.6633,104.857 74.5,102.5C 68.0312,103.4 61.5312,104.067 55,104.5C 52.0706,104.475 49.5706,103.809 47.5,102.5C 51.3714,102.815 55.0381,102.482 58.5,101.5 Z"/></g>
<g><path style="opacity:0.101" fill="#02010c" d="M 6.5,94.5 C 7.16667,94.5 7.83333,94.5 8.5,94.5C 9.5,95.8333 10.5,97.1667 11.5,98.5C 13.5,102.5 16.5,105.5 20.5,107.5C 25.3964,111.58 31.063,113.913 37.5,114.5C 38.5511,115.222 39.2178,116.222 39.5,117.5C 27.7187,115.844 17.8853,110.51 10,101.5C 8.12067,99.4732 6.95401,97.1398 6.5,94.5 Z"/></g>
<g><path style="opacity:0.96" fill="#231763" d="M 37.5,114.5 C 45.5,114.5 53.5,114.5 61.5,114.5C 60.8902,115.391 60.5569,116.391 60.5,117.5C 59.8333,117.5 59.1667,117.5 58.5,117.5C 58.189,116.522 57.5223,115.855 56.5,115.5C 51.8333,116.833 47.1667,116.833 42.5,115.5C 41.4777,115.855 40.811,116.522 40.5,117.5C 40.1667,117.5 39.8333,117.5 39.5,117.5C 39.2178,116.222 38.5511,115.222 37.5,114.5 Z"/></g>
<g><path style="opacity:0.055" fill="#0d051a" d="M 71.5,111.5 C 71.5,112.5 71.5,113.5 71.5,114.5C 67.9054,115.697 64.2388,116.697 60.5,117.5C 60.5569,116.391 60.8902,115.391 61.5,114.5C 64.6189,113.13 67.9523,112.13 71.5,111.5 Z"/></g>
<g><path style="opacity:0.153" fill="#030111" d="M 58.5,117.5 C 52.5307,118.793 46.5307,118.793 40.5,117.5C 40.811,116.522 41.4777,115.855 42.5,115.5C 47.1667,116.833 51.8333,116.833 56.5,115.5C 57.5223,115.855 58.189,116.522 58.5,117.5 Z"/></g>
<g><path style="opacity:0.922" fill="#253223" d="M 71.5,111.5 C 72.5,111.5 73.5,111.5 74.5,111.5C 72.6662,126.518 70.4995,141.518 68,156.5C 67.5006,162.157 67.3339,167.824 67.5,173.5C 66.6862,175.631 66.1862,177.964 66,180.5C 65.5001,192.162 65.3335,203.829 65.5,215.5C 64.8333,215.5 64.1667,215.5 63.5,215.5C 63.1061,207.838 61.7728,207.838 59.5,215.5C 58.5,215.5 57.5,215.5 56.5,215.5C 57.8592,211.118 60.0259,207.118 63,203.5C 63.4459,188.653 64.1125,173.653 65,158.5C 67.4943,143.863 69.661,129.197 71.5,114.5C 71.5,113.5 71.5,112.5 71.5,111.5 Z"/></g>
<g><path style="opacity:1" fill="#222324" d="M 98.5,125.5 C 98.335,122.15 98.5017,118.817 99,115.5C 99.7863,120.22 100.786,124.886 102,129.5C 107.333,137.5 112.667,137.5 118,129.5C 119.378,122.882 119.711,116.215 119,109.5C 117.054,106.861 116.054,103.861 116,100.5C 114.5,99 113,97.5 111.5,96C 108.374,94.9836 106.041,95.8169 104.5,98.5C 103.833,98.5 103.5,98.8333 103.5,99.5C 102.346,104.374 101.18,109.374 100,114.5C 99.5499,110.812 99.7166,107.146 100.5,103.5C 100.354,99.4809 100.021,95.4809 99.5,91.5C 100.5,91.5 101.5,91.5 102.5,91.5C 102.03,95.9704 103.03,96.4704 105.5,93C 107.167,92.3333 108.833,92.3333 110.5,93C 117.34,96.3444 120.84,101.844 121,109.5C 121.667,115.833 121.667,122.167 121,128.5C 118.073,136.546 112.573,139.046 104.5,136C 101.071,133.308 99.0713,129.808 98.5,125.5 Z"/></g>
<g><path style="opacity:1" fill="#cfd0d2" d="M 104.5,98.5 C 105.5,98.5 106.5,98.5 107.5,98.5C 107.662,100.527 107.495,102.527 107,104.5C 105.989,105.337 104.822,105.67 103.5,105.5C 103.5,103.5 103.5,101.5 103.5,99.5C 103.5,98.8333 103.833,98.5 104.5,98.5 Z"/></g>
<g><path style="opacity:1" fill="#3b3a2f" d="M 158.5,167.5 C 157.778,166.449 156.778,165.782 155.5,165.5C 158.5,163.5 161.5,161.5 164.5,159.5C 165.995,159.585 166.995,158.919 167.5,157.5C 163.122,152.636 157.789,149.136 151.5,147C 143.522,142.033 135.855,142.367 128.5,148C 123.672,151.581 118.672,154.915 113.5,158C 112.663,159.011 112.33,160.178 112.5,161.5C 113.833,161.5 115.167,161.5 116.5,161.5C 120.5,163.5 124.5,165.5 128.5,167.5C 127.833,168.167 127.167,168.833 126.5,169.5C 124.056,167.928 121.39,166.428 118.5,165C 114.833,164 111.167,163 107.5,162C 106.978,161.439 106.645,160.772 106.5,160C 114.943,154.603 123.276,148.936 131.5,143C 133.513,141.743 135.679,140.909 138,140.5C 147.214,143.023 156.047,146.523 164.5,151C 166.667,153.167 168.833,155.333 171,157.5C 171.617,158.449 171.451,159.282 170.5,160C 166.799,161.674 163.132,163.341 159.5,165C 158.748,165.671 158.414,166.504 158.5,167.5 Z"/></g>
<g><path style="opacity:1" fill="#efee9d" d="M 164.5,159.5 C 159.643,159.687 154.976,160.52 150.5,162C 139.154,162.593 127.821,162.426 116.5,161.5C 115.167,161.5 113.833,161.5 112.5,161.5C 112.33,160.178 112.663,159.011 113.5,158C 118.672,154.915 123.672,151.581 128.5,148C 135.855,142.367 143.522,142.033 151.5,147C 157.789,149.136 163.122,152.636 167.5,157.5C 166.995,158.919 165.995,159.585 164.5,159.5 Z"/></g>
<g><path style="opacity:1" fill="#a4a885" d="M 164.5,159.5 C 161.5,161.5 158.5,163.5 155.5,165.5C 150.397,167.022 145.397,168.688 140.5,170.5C 136.317,170.121 132.317,169.121 128.5,167.5C 124.5,165.5 120.5,163.5 116.5,161.5C 127.821,162.426 139.154,162.593 150.5,162C 154.976,160.52 159.643,159.687 164.5,159.5 Z"/></g>
<g><path style="opacity:1" fill="#7c7e7b" d="M 67.5,173.5 C 66.6823,187.484 66.349,201.484 66.5,215.5C 66.1667,215.5 65.8333,215.5 65.5,215.5C 65.3335,203.829 65.5001,192.162 66,180.5C 66.1862,177.964 66.6862,175.631 67.5,173.5 Z"/></g>
<g><path style="opacity:1" fill="#382a2b" d="M 155.5,165.5 C 156.778,165.782 157.778,166.449 158.5,167.5C 165.806,169.237 171.973,172.904 177,178.5C 180.161,185.095 180.328,191.762 177.5,198.5C 172.044,204.14 165.544,205.806 158,203.5C 153.902,208.82 148.402,211.153 141.5,210.5C 139.201,209.222 136.868,207.889 134.5,206.5C 126.436,210.58 120.436,208.58 116.5,200.5C 113.428,187.972 116.761,177.638 126.5,169.5C 127.167,168.833 127.833,168.167 128.5,167.5C 132.317,169.121 136.317,170.121 140.5,170.5C 145.397,168.688 150.397,167.022 155.5,165.5 Z"/></g>
<g><path style="opacity:1" fill="#9e6d7e" d="M 158.5,169.5 C 152.288,171.456 146.288,173.79 140.5,176.5C 136.399,174.331 132.065,172.664 127.5,171.5C 127.917,170.876 128.584,170.543 129.5,170.5C 132.702,171.047 135.702,172.047 138.5,173.5C 142.688,172.493 146.688,170.993 150.5,169C 153.367,168.199 156.034,168.366 158.5,169.5 Z"/></g>
<g><path style="opacity:1" fill="#efa19e" d="M 158.5,169.5 C 165.373,171.519 171.206,175.186 176,180.5C 177.723,185.416 177.89,190.416 176.5,195.5C 173.978,197.856 171.312,200.023 168.5,202C 164.41,202.954 160.577,202.454 157,200.5C 150.294,210.313 142.794,210.98 134.5,202.5C 128.563,208.206 123.397,207.539 119,200.5C 116.045,188.938 118.879,179.271 127.5,171.5C 132.065,172.664 136.399,174.331 140.5,176.5C 146.288,173.79 152.288,171.456 158.5,169.5 Z"/></g>
<g><path style="opacity:1" fill="#a7a9bf" d="M 177.5,198.5 C 175.935,202.553 172.935,205.053 168.5,206C 162.483,205.511 157.15,207.011 152.5,210.5C 148.685,211.808 145.019,211.808 141.5,210.5C 148.402,211.153 153.902,208.82 158,203.5C 165.544,205.806 172.044,204.14 177.5,198.5 Z"/></g>
<g><path style="opacity:1" fill="#d6d5d7" d="M 63.5,215.5 C 62.1667,215.5 60.8333,215.5 59.5,215.5C 61.7728,207.838 63.1061,207.838 63.5,215.5 Z"/></g>
</svg>
